<?xml version="1.0" encoding="UTF-8" standalone="no"?>
<svg
   xmlns:dc="http://purl.org/dc/elements/1.1/"
   xmlns:cc="http://creativecommons.org/ns#"
   xmlns:rdf="http://www.w3.org/1999/02/22-rdf-syntax-ns#"
   xmlns:svg="http://www.w3.org/2000/svg"
   xmlns="http://www.w3.org/2000/svg"
   xmlns:xlink="http://www.w3.org/1999/xlink"
   xmlns:sodipodi="http://sodipodi.sourceforge.net/DTD/sodipodi-0.dtd"
   xmlns:inkscape="http://www.inkscape.org/namespaces/inkscape"
   inkscape:export-ydpi="96"
   inkscape:export-xdpi="96"
   inkscape:export-filename="E:\OneDrive\Sound it out\logo V2.png"
   sodipodi:docname="name.svg"
   inkscape:version="1.0 (4035a4fb49, 2020-05-01)"
   id="svg8"
   version="1.1"
   viewBox="0 0 782.66899 112.28232"
   height="11.228232cm"
   width="78.266899cm">
  <defs
     id="defs2">
    <linearGradient
       id="linearGradient2384"
       inkscape:collect="always">
      <stop
         id="stop2380"
         offset="0"
         style="stop-color:#000000;stop-opacity:1;" />
      <stop
         id="stop2382"
         offset="1"
         style="stop-color:#000000;stop-opacity:0;" />
    </linearGradient>
    <clipPath
       id="clipPath4840"
       clipPathUnits="userSpaceOnUse">
      <rect
         ry="13.637312"
         y="161.9762"
         x="99.785713"
         height="423.33331"
         width="707.57141"
         id="rect4842"
         style="fill:none;fill-opacity:1;stroke:#ff0000;stroke-width:0.264583" />
    </clipPath>
    <linearGradient
       gradientUnits="userSpaceOnUse"
       y2="-100.89722"
       x2="858.54492"
       y1="-100.89722"
       x1="75.874336"
       id="linearGradient2386"
       xlink:href="#linearGradient2384"
       inkscape:collect="always" />
  </defs>
  <sodipodi:namedview
     inkscape:document-rotation="0"
     inkscape:guide-bbox="true"
     showguides="true"
     units="cm"
     inkscape:window-maximized="1"
     inkscape:window-y="-8"
     inkscape:window-x="-8"
     inkscape:window-height="1017"
     inkscape:window-width="1920"
     showgrid="false"
     inkscape:current-layer="layer2"
     inkscape:document-units="cm"
     inkscape:cy="1642.6834"
     inkscape:cx="1901.4096"
     inkscape:zoom="0.12374369"
     inkscape:pageshadow="2"
     inkscape:pageopacity="0.0"
     borderopacity="1.0"
     bordercolor="#666666"
     pagecolor="#ffffff"
     id="base">
    <sodipodi:guide
       inkscape:locked="false"
       id="guide4848"
       orientation="0,1"
       position="-144.43761,183.56289" />
  </sodipodi:namedview>
  <metadata
     id="metadata5">
    <rdf:RDF>
      <cc:Work
         rdf:about="">
        <dc:format>image/svg+xml</dc:format>
        <dc:type
           rdf:resource="http://purl.org/dc/dcmitype/StillImage" />
        <dc:title></dc:title>
      </cc:Work>
    </rdf:RDF>
  </metadata>
  <g
     transform="translate(-8.6646951,-2.120069)"
     style="display:none"
     inkscape:label="Layer 3"
     id="layer3"
     inkscape:groupmode="layer">
    <path
       inkscape:connector-curvature="0"
       id="path3900"
       d="m 83.271421,443.26042 -1.47274,-1.56765 V 336.58042 c 0,-122.12434 -1.14581,-107.81789 8.63602,-107.82744 6.8378,-0.007 19.368919,-0.99924 26.246649,-2.0789 11.72237,-1.84018 18.56794,-4.23384 37.59199,-13.14462 15.23047,-7.1339 24.49891,-10.87466 32.33818,-13.05172 5.83997,-1.62182 7.75061,-1.83038 16.42982,-1.79338 11.72571,0.0499 18.95463,1.55336 27.61738,5.7434 6.66228,3.22243 13.84538,9.63702 17.59589,15.71332 2.14248,3.4711 2.59672,3.87915 3.19545,2.8705 7.14569,-12.03805 17.10022,-19.3187 31.17792,-22.80334 4.85199,-1.201 8.10029,-1.51416 15.91735,-1.53451 8.64291,-0.0216 10.61424,0.1944 16.4298,1.80687 7.83444,2.17236 17.09636,5.90964 32.33818,13.04886 19.02406,8.91078 25.86964,11.30444 37.59202,13.14462 6.87771,1.07966 19.40883,2.07221 26.24667,2.0789 9.78195,0.01 8.63598,-14.3113 8.63598,107.92239 v 105.20724 l -1.56765,1.47273 -1.56765,1.47274 H 250.69841 84.744151 Z M 103.812,430.89841 c 11.66285,-2.02037 23.09817,-5.10835 40.03908,-10.81215 19.27346,-6.48914 31.84073,-9.8855 42.34385,-11.44358 9.26652,-1.37465 21.41018,-1.38852 26.69476,-0.0305 8.03242,2.06412 17.89642,7.60344 25.13384,14.11435 1.91738,1.72493 3.66998,3.13625 3.89464,3.13625 0.22464,0 0.40556,-42.1386 0.40198,-93.64133 l -0.007,-93.64133 -3.48804,-4.64402 c -6.94104,-9.24171 -17.57647,-16.60283 -27.65602,-19.14179 -6.03256,-1.51954 -14.74629,-0.95234 -22.35199,1.45493 -3.16653,1.00224 -12.31053,4.72006 -20.32001,8.26181 -15.88233,7.0231 -24.61557,10.12366 -34.59177,12.28105 -9.05592,1.95837 -22.08951,3.48141 -29.79276,3.48141 h -6.512549 l -0.4499,45.83175 c -0.60438,61.56924 -0.57081,145.85407 0.0581,145.8514 0.27938,-0.002 3.251179,-0.47738 6.603979,-1.05818 z m 301.07465,-38.79036 c 0,-21.91788 -0.20232,-65.00499 -0.44946,-95.74913 l -0.44943,-55.89845 -10.21857,-0.38011 c -17.19972,-0.63984 -35.68641,-4.66615 -50.17372,-10.92761 -3.72946,-1.61186 -11.433,-4.95276 -17.11898,-7.42416 -14.20138,-6.17264 -19.09169,-7.48587 -27.93116,-7.50066 -7.73764,-0.012 -11.52247,0.90975 -18.288,4.45842 -5.35034,2.80634 -13.21514,9.65479 -17.394,15.14621 l -3.60333,4.73515 v 93.64752 c 0,51.50614 0.18384,93.64752 0.40848,93.64752 0.22464,0 1.97726,-1.41132 3.89467,-3.13625 4.9722,-4.47312 10.61412,-8.16256 16.95235,-11.08579 7.46323,-3.4421 10.51577,-4.06663 19.85376,-4.06197 15.19315,0.007 28.46122,2.90282 57.40155,12.52564 18.8904,6.28116 37.42962,11.02505 45.93051,11.75288 1.1166,0.0955 1.18533,-2.20906 1.18533,-39.74921 z"
       style="fill:#000000;stroke-width:0.677333" />
  </g>
  <g
     style="display:inline"
     transform="translate(-75.874326,692.19788)"
     id="layer1"
     inkscape:groupmode="layer"
     inkscape:label="Layer 1" />
  <g
     style="display:inline"
     transform="translate(-75.874326,692.19788)"
     inkscape:label="Layer 2"
     id="layer2"
     inkscape:groupmode="layer">
    <text
       id="text3821"
       y="-583.47089"
       x="69.590485"
       style="font-style:normal;font-weight:normal;font-size:105.833px;line-height:1.25;font-family:sans-serif;letter-spacing:0px;word-spacing:0px;fill:#00b700;fill-opacity:1;stroke:none;stroke-width:2.64583"
       xml:space="preserve"><tspan
         style="font-style:normal;font-variant:normal;font-weight:normal;font-stretch:normal;font-size:169.333px;font-family:'Tw Cen MT';-inkscape-font-specification:'Tw Cen MT';fill:#00b700;fill-opacity:1;stroke-width:2.64583"
         y="-583.47089"
         x="69.590485"
         id="tspan3819"
         sodipodi:role="line">Sound it out</tspan></text>
  </g>
  <g
     transform="translate(-8.6646951,-2.120069)"
     style="display:none"
     inkscape:label="closed book"
     id="layer5"
     inkscape:groupmode="layer">
    <path
       sodipodi:nodetypes="sssssscssscsss"
       inkscape:connector-curvature="0"
       id="rect4708"
       transform="scale(0.26458333)"
       d="m 968.12109,203.27539 c -88.63997,0 -160,76.50837 -160,171.54297 V 1664.1406 c 0,95.0346 71.36064,171.2128 160,171.541 l 1157.31671,4.2857 c 135.6569,0.5024 110.5679,-180.3663 11.9955,-181.847 l -112.3301,-1.6874 -918.5309,-7.2044 c -69.268,-0.5433 -125.03714,-50.2867 -125.03714,-112.75 0,-62.4633 55.76704,-112.748 125.03714,-112.748 l 1116.2683,3.5355 -4.5457,-1052.44764 c -0.4105,-95.03371 -71.36,-171.54297 -160,-171.54297 z"
       style="fill:#31c100;fill-opacity:1;stroke:#ff0000;stroke-width:1" />
  </g>
</svg>
